<mxfile host="Electron" modified="2023-12-24T13:52:27.495Z" agent="Mozilla/5.0 (Windows NT 10.0; Win64; x64) AppleWebKit/537.36 (KHTML, like Gecko) draw.io/22.1.11 Chrome/114.0.5735.289 Electron/25.9.8 Safari/537.36" etag="DueXxzBCg1NaBXW8RCuR" version="22.1.11" type="device">
  <diagram name="Page-1" id="DPux6uAd4Rrn7p2a-XD4">
    <mxGraphModel dx="1750" dy="1035" grid="1" gridSize="10" guides="1" tooltips="1" connect="1" arrows="1" fold="1" page="1" pageScale="1" pageWidth="827" pageHeight="1169" math="0" shadow="0">
      <root>
        <mxCell id="0" />
        <mxCell id="1" parent="0" />
        <mxCell id="UbLhNLYs-6yFI1zyfzcH-86" value="" style="rounded=0;whiteSpace=wrap;html=1;fillColor=none;dashed=1;" vertex="1" parent="1">
          <mxGeometry x="50" y="190" width="330" height="840" as="geometry" />
        </mxCell>
        <mxCell id="UbLhNLYs-6yFI1zyfzcH-4" value="" style="edgeStyle=orthogonalEdgeStyle;rounded=0;orthogonalLoop=1;jettySize=auto;html=1;" edge="1" parent="1" source="UbLhNLYs-6yFI1zyfzcH-2" target="UbLhNLYs-6yFI1zyfzcH-3">
          <mxGeometry relative="1" as="geometry" />
        </mxCell>
        <mxCell id="UbLhNLYs-6yFI1zyfzcH-2" value="Start" style="ellipse;whiteSpace=wrap;html=1;fillColor=#008a00;fontColor=#ffffff;strokeColor=#005700;" vertex="1" parent="1">
          <mxGeometry x="80" y="100" width="120" height="80" as="geometry" />
        </mxCell>
        <mxCell id="UbLhNLYs-6yFI1zyfzcH-74" value="" style="edgeStyle=orthogonalEdgeStyle;rounded=0;orthogonalLoop=1;jettySize=auto;html=1;" edge="1" parent="1" source="UbLhNLYs-6yFI1zyfzcH-3" target="UbLhNLYs-6yFI1zyfzcH-69">
          <mxGeometry relative="1" as="geometry" />
        </mxCell>
        <mxCell id="UbLhNLYs-6yFI1zyfzcH-3" value="Show menu on the terminal" style="whiteSpace=wrap;html=1;" vertex="1" parent="1">
          <mxGeometry x="80" y="210" width="120" height="60" as="geometry" />
        </mxCell>
        <mxCell id="UbLhNLYs-6yFI1zyfzcH-84" style="edgeStyle=orthogonalEdgeStyle;rounded=0;orthogonalLoop=1;jettySize=auto;html=1;entryX=0.5;entryY=0;entryDx=0;entryDy=0;" edge="1" parent="1" source="UbLhNLYs-6yFI1zyfzcH-11" target="UbLhNLYs-6yFI1zyfzcH-70">
          <mxGeometry relative="1" as="geometry">
            <Array as="points">
              <mxPoint x="300" y="530" />
              <mxPoint x="140" y="530" />
            </Array>
          </mxGeometry>
        </mxCell>
        <mxCell id="UbLhNLYs-6yFI1zyfzcH-11" value="Start Timer1&lt;br&gt;Red LED = 0;" style="whiteSpace=wrap;html=1;" vertex="1" parent="1">
          <mxGeometry x="240" y="320" width="120" height="60" as="geometry" />
        </mxCell>
        <mxCell id="UbLhNLYs-6yFI1zyfzcH-77" value="" style="edgeStyle=orthogonalEdgeStyle;rounded=0;orthogonalLoop=1;jettySize=auto;html=1;" edge="1" parent="1" source="UbLhNLYs-6yFI1zyfzcH-14" target="UbLhNLYs-6yFI1zyfzcH-70">
          <mxGeometry relative="1" as="geometry" />
        </mxCell>
        <mxCell id="UbLhNLYs-6yFI1zyfzcH-14" value="Stop Timer1&lt;br&gt;Orange LED = 0;&lt;br&gt;Red LED = 1;" style="whiteSpace=wrap;html=1;" vertex="1" parent="1">
          <mxGeometry x="80" y="450" width="120" height="60" as="geometry" />
        </mxCell>
        <mxCell id="UbLhNLYs-6yFI1zyfzcH-83" style="edgeStyle=orthogonalEdgeStyle;rounded=0;orthogonalLoop=1;jettySize=auto;html=1;entryX=0.5;entryY=0;entryDx=0;entryDy=0;" edge="1" parent="1" source="UbLhNLYs-6yFI1zyfzcH-19" target="UbLhNLYs-6yFI1zyfzcH-72">
          <mxGeometry relative="1" as="geometry">
            <Array as="points">
              <mxPoint x="300" y="790" />
              <mxPoint x="140" y="790" />
            </Array>
          </mxGeometry>
        </mxCell>
        <mxCell id="UbLhNLYs-6yFI1zyfzcH-19" value="Green LED =1;" style="whiteSpace=wrap;html=1;" vertex="1" parent="1">
          <mxGeometry x="240" y="580" width="120" height="60" as="geometry" />
        </mxCell>
        <mxCell id="UbLhNLYs-6yFI1zyfzcH-80" value="" style="edgeStyle=orthogonalEdgeStyle;rounded=0;orthogonalLoop=1;jettySize=auto;html=1;" edge="1" parent="1" source="UbLhNLYs-6yFI1zyfzcH-21" target="UbLhNLYs-6yFI1zyfzcH-72">
          <mxGeometry relative="1" as="geometry" />
        </mxCell>
        <mxCell id="UbLhNLYs-6yFI1zyfzcH-21" value="Green LED = 0;" style="whiteSpace=wrap;html=1;" vertex="1" parent="1">
          <mxGeometry x="80" y="710" width="120" height="60" as="geometry" />
        </mxCell>
        <mxCell id="UbLhNLYs-6yFI1zyfzcH-85" style="edgeStyle=orthogonalEdgeStyle;rounded=0;orthogonalLoop=1;jettySize=auto;html=1;entryX=1;entryY=0.5;entryDx=0;entryDy=0;" edge="1" parent="1" source="UbLhNLYs-6yFI1zyfzcH-31" target="UbLhNLYs-6yFI1zyfzcH-42">
          <mxGeometry relative="1" as="geometry">
            <Array as="points">
              <mxPoint x="300" y="980" />
            </Array>
          </mxGeometry>
        </mxCell>
        <mxCell id="UbLhNLYs-6yFI1zyfzcH-31" value="Show the right menu in the terminal&amp;nbsp;" style="whiteSpace=wrap;html=1;" vertex="1" parent="1">
          <mxGeometry x="240" y="830" width="120" height="60" as="geometry" />
        </mxCell>
        <mxCell id="UbLhNLYs-6yFI1zyfzcH-42" value="Check if USART have receive any character" style="whiteSpace=wrap;html=1;" vertex="1" parent="1">
          <mxGeometry x="80" y="950" width="120" height="60" as="geometry" />
        </mxCell>
        <mxCell id="UbLhNLYs-6yFI1zyfzcH-46" value="&lt;font style=&quot;font-size: 24px;&quot;&gt;Interrupts&lt;/font&gt;" style="text;html=1;strokeColor=none;fillColor=none;align=center;verticalAlign=middle;whiteSpace=wrap;rounded=0;" vertex="1" parent="1">
          <mxGeometry x="510" y="60" width="220" height="50" as="geometry" />
        </mxCell>
        <mxCell id="UbLhNLYs-6yFI1zyfzcH-49" value="" style="edgeStyle=orthogonalEdgeStyle;rounded=0;orthogonalLoop=1;jettySize=auto;html=1;" edge="1" parent="1" source="UbLhNLYs-6yFI1zyfzcH-47" target="UbLhNLYs-6yFI1zyfzcH-48">
          <mxGeometry relative="1" as="geometry" />
        </mxCell>
        <mxCell id="UbLhNLYs-6yFI1zyfzcH-47" value="TMR0_CALLBACK()" style="rounded=1;whiteSpace=wrap;html=1;fillColor=#a0522d;strokeColor=#6D1F00;fontColor=#ffffff;" vertex="1" parent="1">
          <mxGeometry x="500" y="120" width="120" height="60" as="geometry" />
        </mxCell>
        <mxCell id="UbLhNLYs-6yFI1zyfzcH-48" value="ADC START COVERSION on channel 0" style="whiteSpace=wrap;html=1;rounded=1;" vertex="1" parent="1">
          <mxGeometry x="500" y="200" width="120" height="60" as="geometry" />
        </mxCell>
        <mxCell id="UbLhNLYs-6yFI1zyfzcH-52" value="" style="edgeStyle=orthogonalEdgeStyle;rounded=0;orthogonalLoop=1;jettySize=auto;html=1;" edge="1" parent="1" source="UbLhNLYs-6yFI1zyfzcH-50" target="UbLhNLYs-6yFI1zyfzcH-51">
          <mxGeometry relative="1" as="geometry" />
        </mxCell>
        <mxCell id="UbLhNLYs-6yFI1zyfzcH-50" value="TMR1_CALLBACK()" style="rounded=1;whiteSpace=wrap;html=1;fillColor=#76608a;fontColor=#ffffff;strokeColor=#432D57;" vertex="1" parent="1">
          <mxGeometry x="660" y="120" width="120" height="60" as="geometry" />
        </mxCell>
        <mxCell id="UbLhNLYs-6yFI1zyfzcH-54" value="" style="edgeStyle=orthogonalEdgeStyle;rounded=0;orthogonalLoop=1;jettySize=auto;html=1;" edge="1" parent="1" source="UbLhNLYs-6yFI1zyfzcH-51" target="UbLhNLYs-6yFI1zyfzcH-53">
          <mxGeometry relative="1" as="geometry" />
        </mxCell>
        <mxCell id="UbLhNLYs-6yFI1zyfzcH-55" value="YES" style="edgeLabel;html=1;align=center;verticalAlign=middle;resizable=0;points=[];" vertex="1" connectable="0" parent="UbLhNLYs-6yFI1zyfzcH-54">
          <mxGeometry x="-0.2111" y="-1" relative="1" as="geometry">
            <mxPoint as="offset" />
          </mxGeometry>
        </mxCell>
        <mxCell id="UbLhNLYs-6yFI1zyfzcH-51" value="if (sistema de controlo flag ==1)" style="rhombus;whiteSpace=wrap;html=1;rounded=1;" vertex="1" parent="1">
          <mxGeometry x="680" y="200" width="80" height="80" as="geometry" />
        </mxCell>
        <mxCell id="UbLhNLYs-6yFI1zyfzcH-53" value="Orange LED toggle()" style="whiteSpace=wrap;html=1;rounded=1;" vertex="1" parent="1">
          <mxGeometry x="660" y="320" width="120" height="60" as="geometry" />
        </mxCell>
        <mxCell id="UbLhNLYs-6yFI1zyfzcH-58" value="&lt;font style=&quot;font-size: 10px;&quot;&gt;40Hz (25ms)&lt;/font&gt;" style="text;html=1;strokeColor=none;fillColor=none;align=center;verticalAlign=middle;whiteSpace=wrap;rounded=0;" vertex="1" parent="1">
          <mxGeometry x="500" y="100" width="60" height="30" as="geometry" />
        </mxCell>
        <mxCell id="UbLhNLYs-6yFI1zyfzcH-59" value="&lt;font style=&quot;font-size: 10px;&quot;&gt;2Hz(500ms)&lt;/font&gt;" style="text;html=1;strokeColor=none;fillColor=none;align=center;verticalAlign=middle;whiteSpace=wrap;rounded=0;" vertex="1" parent="1">
          <mxGeometry x="660" y="100" width="60" height="30" as="geometry" />
        </mxCell>
        <mxCell id="UbLhNLYs-6yFI1zyfzcH-62" value="" style="edgeStyle=orthogonalEdgeStyle;rounded=0;orthogonalLoop=1;jettySize=auto;html=1;" edge="1" parent="1" source="UbLhNLYs-6yFI1zyfzcH-60" target="UbLhNLYs-6yFI1zyfzcH-61">
          <mxGeometry relative="1" as="geometry" />
        </mxCell>
        <mxCell id="UbLhNLYs-6yFI1zyfzcH-60" value="ADC_CALLBACK()" style="rounded=1;whiteSpace=wrap;html=1;fillColor=#f0a30a;fontColor=#000000;strokeColor=#BD7000;" vertex="1" parent="1">
          <mxGeometry x="500" y="300" width="120" height="60" as="geometry" />
        </mxCell>
        <mxCell id="UbLhNLYs-6yFI1zyfzcH-64" value="" style="edgeStyle=orthogonalEdgeStyle;rounded=0;orthogonalLoop=1;jettySize=auto;html=1;" edge="1" parent="1" source="UbLhNLYs-6yFI1zyfzcH-61" target="UbLhNLYs-6yFI1zyfzcH-63">
          <mxGeometry relative="1" as="geometry" />
        </mxCell>
        <mxCell id="UbLhNLYs-6yFI1zyfzcH-61" value="Get conversion result from channel 0" style="whiteSpace=wrap;html=1;rounded=1;" vertex="1" parent="1">
          <mxGeometry x="500" y="390" width="120" height="60" as="geometry" />
        </mxCell>
        <mxCell id="UbLhNLYs-6yFI1zyfzcH-63" value="Convert value to 0-100%" style="whiteSpace=wrap;html=1;rounded=1;" vertex="1" parent="1">
          <mxGeometry x="500" y="470" width="120" height="60" as="geometry" />
        </mxCell>
        <mxCell id="UbLhNLYs-6yFI1zyfzcH-67" value="" style="edgeStyle=orthogonalEdgeStyle;rounded=0;orthogonalLoop=1;jettySize=auto;html=1;" edge="1" parent="1" source="UbLhNLYs-6yFI1zyfzcH-65" target="UbLhNLYs-6yFI1zyfzcH-66">
          <mxGeometry relative="1" as="geometry" />
        </mxCell>
        <mxCell id="UbLhNLYs-6yFI1zyfzcH-65" value="INT0_CALLBACK()" style="rounded=1;whiteSpace=wrap;html=1;fillColor=#647687;fontColor=#ffffff;strokeColor=#314354;" vertex="1" parent="1">
          <mxGeometry x="660" y="400" width="120" height="60" as="geometry" />
        </mxCell>
        <mxCell id="UbLhNLYs-6yFI1zyfzcH-66" value="Emergency button!&lt;br&gt;turn off sistema de controlo flag" style="whiteSpace=wrap;html=1;rounded=1;" vertex="1" parent="1">
          <mxGeometry x="660" y="480" width="120" height="60" as="geometry" />
        </mxCell>
        <mxCell id="UbLhNLYs-6yFI1zyfzcH-75" value="" style="edgeStyle=orthogonalEdgeStyle;rounded=0;orthogonalLoop=1;jettySize=auto;html=1;" edge="1" parent="1" source="UbLhNLYs-6yFI1zyfzcH-69" target="UbLhNLYs-6yFI1zyfzcH-11">
          <mxGeometry relative="1" as="geometry" />
        </mxCell>
        <mxCell id="UbLhNLYs-6yFI1zyfzcH-76" value="" style="edgeStyle=orthogonalEdgeStyle;rounded=0;orthogonalLoop=1;jettySize=auto;html=1;" edge="1" parent="1" source="UbLhNLYs-6yFI1zyfzcH-69" target="UbLhNLYs-6yFI1zyfzcH-14">
          <mxGeometry relative="1" as="geometry" />
        </mxCell>
        <mxCell id="UbLhNLYs-6yFI1zyfzcH-69" value="if (sistema de controlo flag ==1)" style="rhombus;whiteSpace=wrap;html=1;rounded=1;" vertex="1" parent="1">
          <mxGeometry x="80" y="290" width="120" height="120" as="geometry" />
        </mxCell>
        <mxCell id="UbLhNLYs-6yFI1zyfzcH-78" value="" style="edgeStyle=orthogonalEdgeStyle;rounded=0;orthogonalLoop=1;jettySize=auto;html=1;" edge="1" parent="1" source="UbLhNLYs-6yFI1zyfzcH-70" target="UbLhNLYs-6yFI1zyfzcH-21">
          <mxGeometry relative="1" as="geometry" />
        </mxCell>
        <mxCell id="UbLhNLYs-6yFI1zyfzcH-79" value="" style="edgeStyle=orthogonalEdgeStyle;rounded=0;orthogonalLoop=1;jettySize=auto;html=1;" edge="1" parent="1" source="UbLhNLYs-6yFI1zyfzcH-70" target="UbLhNLYs-6yFI1zyfzcH-19">
          <mxGeometry relative="1" as="geometry" />
        </mxCell>
        <mxCell id="UbLhNLYs-6yFI1zyfzcH-70" value="if (Bomba ligada flag ==1)" style="rhombus;whiteSpace=wrap;html=1;rounded=1;" vertex="1" parent="1">
          <mxGeometry x="80" y="550" width="120" height="120" as="geometry" />
        </mxCell>
        <mxCell id="UbLhNLYs-6yFI1zyfzcH-81" value="" style="edgeStyle=orthogonalEdgeStyle;rounded=0;orthogonalLoop=1;jettySize=auto;html=1;" edge="1" parent="1" source="UbLhNLYs-6yFI1zyfzcH-72" target="UbLhNLYs-6yFI1zyfzcH-42">
          <mxGeometry relative="1" as="geometry" />
        </mxCell>
        <mxCell id="UbLhNLYs-6yFI1zyfzcH-82" value="" style="edgeStyle=orthogonalEdgeStyle;rounded=0;orthogonalLoop=1;jettySize=auto;html=1;" edge="1" parent="1" source="UbLhNLYs-6yFI1zyfzcH-72" target="UbLhNLYs-6yFI1zyfzcH-31">
          <mxGeometry relative="1" as="geometry" />
        </mxCell>
        <mxCell id="UbLhNLYs-6yFI1zyfzcH-72" value="if (caracter recebido==1)" style="rhombus;whiteSpace=wrap;html=1;rounded=1;" vertex="1" parent="1">
          <mxGeometry x="85" y="805" width="110" height="110" as="geometry" />
        </mxCell>
        <mxCell id="UbLhNLYs-6yFI1zyfzcH-87" value="While(true)" style="text;html=1;strokeColor=none;fillColor=none;align=center;verticalAlign=middle;whiteSpace=wrap;rounded=0;" vertex="1" parent="1">
          <mxGeometry x="300" y="160" width="80" height="30" as="geometry" />
        </mxCell>
      </root>
    </mxGraphModel>
  </diagram>
</mxfile>
